<svg id="Layer_1" data-name="Layer 1" xmlns="http://www.w3.org/2000/svg" xmlns:xlink="http://www.w3.org/1999/xlink" width="38" height="17.47" viewBox="0 0 38 17.47"><defs><style>.cls-1{fill:none;}.cls-2{clip-path:url(#clip-path);}.cls-3{fill:#008585;}.cls-4{fill:#f6f6f6;}</style><clipPath id="clip-path"><rect class="cls-1" y="0.47" width="38" height="17"/></clipPath></defs><title>sprite</title><g class="cls-2"><path class="cls-3" d="M6.66,1.88a.69.69,0,0,1,.53-.22.71.71,0,0,1,.53.22l6.06,6.06a.69.69,0,0,1,.22.53.71.71,0,0,1-.22.53L7.72,15.06a.71.71,0,0,1-.53.22.69.69,0,0,1-.53-.22L6,14.38a.65.65,0,0,1-.24-.54A.79.79,0,0,1,6,13.31L9.72,9.72h-9A.69.69,0,0,1,.22,9.5.71.71,0,0,1,0,9V8a.69.69,0,0,1,.22-.53.69.69,0,0,1,.53-.22h9L6,3.63a.79.79,0,0,1-.24-.54A.65.65,0,0,1,6,2.56Z"/></g><path class="cls-4" d="M29,0a8.42,8.42,0,0,1,4.36,1.18,8.66,8.66,0,0,1,3.18,3.18,8.42,8.42,0,0,1,1.18,4.36,8.42,8.42,0,0,1-1.18,4.36,8.81,8.81,0,0,1-3.18,3.18,8.64,8.64,0,0,1-8.72,0,8.81,8.81,0,0,1-3.18-3.18,8.42,8.42,0,0,1-1.18-4.36,8.42,8.42,0,0,1,1.18-4.36,8.66,8.66,0,0,1,3.18-3.18A8.42,8.42,0,0,1,29,0Zm0,15.75a6.86,6.86,0,0,0,3.52-.95,7.09,7.09,0,0,0,2.56-2.57,7,7,0,0,0,0-7,7.14,7.14,0,0,0-2.56-2.56,7,7,0,0,0-7,0A7.14,7.14,0,0,0,22.92,5.2a7,7,0,0,0,0,7,7.09,7.09,0,0,0,2.56,2.57A6.86,6.86,0,0,0,29,15.75Zm2.18-3.66a.36.36,0,0,0,.32.07.46.46,0,0,0,.28-.17l.63-.92a.42.42,0,0,0,.09-.31.39.39,0,0,0-.16-.28L30,8.79v-5a.41.41,0,0,0-.42-.42H28.44A.41.41,0,0,0,28,3.8V9.56a.41.41,0,0,0,.17.35Z"/></svg>