<?xml version="1.0" encoding="utf-8"?>
<!-- Generator: Adobe Illustrator 23.0.4, SVG Export Plug-In . SVG Version: 6.00 Build 0)  -->
<svg version="1.1"
	 id="svg2" inkscape:version="0.91 r13725" sodipodi:docname="logo.svg" xmlns:cc="http://creativecommons.org/ns#" xmlns:dc="http://purl.org/dc/elements/1.1/" xmlns:inkscape="http://www.inkscape.org/namespaces/inkscape" xmlns:rdf="http://www.w3.org/1999/02/22-rdf-syntax-ns#" xmlns:sodipodi="http://sodipodi.sourceforge.net/DTD/sodipodi-0.dtd" xmlns:svg="http://www.w3.org/2000/svg"
	 xmlns="http://www.w3.org/2000/svg" xmlns:xlink="http://www.w3.org/1999/xlink" x="0px" y="0px" width="812px" height="304.6px"
	 viewBox="0 0 812 304.6" style="enable-background:new 0 0 812 304.6;" xml:space="preserve">
<style type="text/css">
	.st0{fill:#FFFFFF;}
</style>
<sodipodi:namedview  bordercolor="#666666" borderopacity="1" gridtolerance="10" guidetolerance="10" id="namedview10" inkscape:current-layer="g4" inkscape:cx="55.569676" inkscape:cy="14.557406" inkscape:pageopacity="0" inkscape:pageshadow="2" inkscape:window-height="480" inkscape:window-width="640" inkscape:zoom="12.677778" objecttolerance="10" pagecolor="#ffffff" showgrid="false">
	</sodipodi:namedview>
<g id="g4" transform="translate(-65,553)">
	<path id="path6" class="st0" d="M175.6-461.4C119.5-461.4,74-417.3,74-363c0,54.3,45.5,98.3,101.6,98.3
		c56.1,0,101.5-43.9,101.5-98.3C277.1-417.3,231.7-461.4,175.6-461.4z M175.6-445.8c35.5,0,64.2,37.1,64.2,82.8
		c0,45.7-28.7,82.7-64.2,82.7c-35.5,0-64.3-37-64.3-82.7C111.3-408.7,140.1-445.8,175.6-445.8z"/>
	<path id="path8" class="st0" d="M865.2-441v-15.2h-58.6V-529h-6.5c-5.2,26-12.6,55.5-27.8,72.9h-32.5v15.2h32.5v133.6
		c0,38.6,30.8,43,44.2,43l45.1-19.5H840c-17.4,0-33.4-9.1-33.4-38.2v-118.9L865.2-441 M643.3-461.1l-61.2,9.5
		c14.3,10,30.8,20,30.8,29.1v153.6H648v-122.8c0-29.5,17.4-39.5,29.1-39.5c7.4,0,14.8-1.3,29.1,5.2c5.2,4.3,4.8,15.6,6.5,15.6
		l17.8-32.1c0-8.2-5.2-18.7-19.5-18.7c-17.4,0-31.7,8.2-62.9,30.8L643.3-461.1 M487.6-451.6c9.1,7.8,31.2,16.2,31.7,29.1v153.6h35.6
		v-190l-0.4-2.2L487.6-451.6 M561.7-519.3c0,13.1-10.6,23.7-23.7,23.7c-13.1,0-23.7-10.6-23.7-23.7c0-13.1,10.6-23.7,23.7-23.7
		C551.1-543,561.7-532.4,561.7-519.3z M234.1-548c7.1,4.8,14.2,9.5,21.3,14.3l56,135.8L359-269.1h26.5l54.2-138.8
		c17.4-45.1,44.7-109.8,55.5-131.4l9.5-8.7H477l0.4,2.2l-42.9,117.6l-48.2,115.8l-5.6-0.9L339.5-417L291.4-541
		c-0.4-2.6-0.4-4.8-0.4-6.9L234.1-548"/>
</g>
</svg>
